<?xml version="1.0" encoding="utf-8" standalone="no"?>
<!DOCTYPE svg PUBLIC "-//W3C//DTD SVG 1.1//EN"
  "http://www.w3.org/Graphics/SVG/1.1/DTD/svg11.dtd">
<svg xmlns:xlink="http://www.w3.org/1999/xlink" width="533.99952pt" height="296.39952pt" viewBox="0 0 533.99952 296.39952" xmlns="http://www.w3.org/2000/svg" version="1.1">
 <metadata>
  <rdf:RDF xmlns:dc="http://purl.org/dc/elements/1.1/" xmlns:cc="http://creativecommons.org/ns#" xmlns:rdf="http://www.w3.org/1999/02/22-rdf-syntax-ns#">
   <cc:Work>
    <dc:type rdf:resource="http://purl.org/dc/dcmitype/StillImage"/>
    <dc:date>2026-04-14T13:13:38.635874</dc:date>
    <dc:format>image/svg+xml</dc:format>
    <dc:creator>
     <cc:Agent>
      <dc:title>Matplotlib v3.8.4, https://matplotlib.org/</dc:title>
     </cc:Agent>
    </dc:creator>
   </cc:Work>
  </rdf:RDF>
 </metadata>
 <defs>
  <style type="text/css">*{stroke-linejoin: round; stroke-linecap: butt}</style>
 </defs>
 <g id="figure_1">
  <g id="patch_1">
   <path d="M 0 296.39952 
L 533.99952 296.39952 
L 533.99952 0 
L 0 0 
z
" style="fill: #ffffff"/>
  </g>
  <g id="axes_1">
   <g id="patch_2">
    <path d="M 59.553125 252.031082 
L 519.16452 252.031082 
L 519.16452 7.2 
L 59.553125 7.2 
z
" style="fill: #ffffff"/>
   </g>
   <g id="matplotlib.axis_1">
    <g id="xtick_1">
     <g id="line2d_1">
      <path d="M 59.553125 252.031082 
L 59.553125 7.2 
" clip-path="url(#pe9a20a50bd)" style="fill: none; stroke-dasharray: 2.96,1.28; stroke-dashoffset: 0; stroke: #b0b0b0; stroke-opacity: 0.5; stroke-width: 0.8"/>
     </g>
     <g id="line2d_2">
      <defs>
       <path id="m0dd6a8e997" d="M 0 0 
L 0 3.5 
" style="stroke: #000000; stroke-width: 0.8"/>
      </defs>
      <g>
       <use xlink:href="#m0dd6a8e997" x="59.553125" y="252.031082" style="stroke: #000000; stroke-width: 0.8"/>
      </g>
     </g>
     <g id="text_1">
      <!-- -12 -->
      <g transform="translate(49.753438 268.149207) scale(0.12 -0.12)">
       <defs>
        <path id="DejaVuSans-2d" d="M 313 2009 
L 1997 2009 
L 1997 1497 
L 313 1497 
L 313 2009 
z
" transform="scale(0.015625)"/>
        <path id="DejaVuSans-31" d="M 794 531 
L 1825 531 
L 1825 4091 
L 703 3866 
L 703 4441 
L 1819 4666 
L 2450 4666 
L 2450 531 
L 3481 531 
L 3481 0 
L 794 0 
L 794 531 
z
" transform="scale(0.015625)"/>
        <path id="DejaVuSans-32" d="M 1228 531 
L 3431 531 
L 3431 0 
L 469 0 
L 469 531 
Q 828 903 1448 1529 
Q 2069 2156 2228 2338 
Q 2531 2678 2651 2914 
Q 2772 3150 2772 3378 
Q 2772 3750 2511 3984 
Q 2250 4219 1831 4219 
Q 1534 4219 1204 4116 
Q 875 4013 500 3803 
L 500 4441 
Q 881 4594 1212 4672 
Q 1544 4750 1819 4750 
Q 2544 4750 2975 4387 
Q 3406 4025 3406 3419 
Q 3406 3131 3298 2873 
Q 3191 2616 2906 2266 
Q 2828 2175 2409 1742 
Q 1991 1309 1228 531 
z
" transform="scale(0.015625)"/>
       </defs>
       <use xlink:href="#DejaVuSans-2d"/>
       <use xlink:href="#DejaVuSans-31" x="36.083984"/>
       <use xlink:href="#DejaVuSans-32" x="99.707031"/>
      </g>
     </g>
    </g>
    <g id="xtick_2">
     <g id="line2d_3">
      <path d="M 97.854075 252.031082 
L 97.854075 7.2 
" clip-path="url(#pe9a20a50bd)" style="fill: none; stroke-dasharray: 2.96,1.28; stroke-dashoffset: 0; stroke: #b0b0b0; stroke-opacity: 0.5; stroke-width: 0.8"/>
     </g>
     <g id="line2d_4">
      <g>
       <use xlink:href="#m0dd6a8e997" x="97.854075" y="252.031082" style="stroke: #000000; stroke-width: 0.8"/>
      </g>
     </g>
     <g id="text_2">
      <!-- -10 -->
      <g transform="translate(88.054387 268.149207) scale(0.12 -0.12)">
       <defs>
        <path id="DejaVuSans-30" d="M 2034 4250 
Q 1547 4250 1301 3770 
Q 1056 3291 1056 2328 
Q 1056 1369 1301 889 
Q 1547 409 2034 409 
Q 2525 409 2770 889 
Q 3016 1369 3016 2328 
Q 3016 3291 2770 3770 
Q 2525 4250 2034 4250 
z
M 2034 4750 
Q 2819 4750 3233 4129 
Q 3647 3509 3647 2328 
Q 3647 1150 3233 529 
Q 2819 -91 2034 -91 
Q 1250 -91 836 529 
Q 422 1150 422 2328 
Q 422 3509 836 4129 
Q 1250 4750 2034 4750 
z
" transform="scale(0.015625)"/>
       </defs>
       <use xlink:href="#DejaVuSans-2d"/>
       <use xlink:href="#DejaVuSans-31" x="36.083984"/>
       <use xlink:href="#DejaVuSans-30" x="99.707031"/>
      </g>
     </g>
    </g>
    <g id="xtick_3">
     <g id="line2d_5">
      <path d="M 136.155024 252.031082 
L 136.155024 7.2 
" clip-path="url(#pe9a20a50bd)" style="fill: none; stroke-dasharray: 2.96,1.28; stroke-dashoffset: 0; stroke: #b0b0b0; stroke-opacity: 0.5; stroke-width: 0.8"/>
     </g>
     <g id="line2d_6">
      <g>
       <use xlink:href="#m0dd6a8e997" x="136.155024" y="252.031082" style="stroke: #000000; stroke-width: 0.8"/>
      </g>
     </g>
     <g id="text_3">
      <!-- -8 -->
      <g transform="translate(130.172837 268.149207) scale(0.12 -0.12)">
       <defs>
        <path id="DejaVuSans-38" d="M 2034 2216 
Q 1584 2216 1326 1975 
Q 1069 1734 1069 1313 
Q 1069 891 1326 650 
Q 1584 409 2034 409 
Q 2484 409 2743 651 
Q 3003 894 3003 1313 
Q 3003 1734 2745 1975 
Q 2488 2216 2034 2216 
z
M 1403 2484 
Q 997 2584 770 2862 
Q 544 3141 544 3541 
Q 544 4100 942 4425 
Q 1341 4750 2034 4750 
Q 2731 4750 3128 4425 
Q 3525 4100 3525 3541 
Q 3525 3141 3298 2862 
Q 3072 2584 2669 2484 
Q 3125 2378 3379 2068 
Q 3634 1759 3634 1313 
Q 3634 634 3220 271 
Q 2806 -91 2034 -91 
Q 1263 -91 848 271 
Q 434 634 434 1313 
Q 434 1759 690 2068 
Q 947 2378 1403 2484 
z
M 1172 3481 
Q 1172 3119 1398 2916 
Q 1625 2713 2034 2713 
Q 2441 2713 2670 2916 
Q 2900 3119 2900 3481 
Q 2900 3844 2670 4047 
Q 2441 4250 2034 4250 
Q 1625 4250 1398 4047 
Q 1172 3844 1172 3481 
z
" transform="scale(0.015625)"/>
       </defs>
       <use xlink:href="#DejaVuSans-2d"/>
       <use xlink:href="#DejaVuSans-38" x="36.083984"/>
      </g>
     </g>
    </g>
    <g id="xtick_4">
     <g id="line2d_7">
      <path d="M 174.455974 252.031082 
L 174.455974 7.2 
" clip-path="url(#pe9a20a50bd)" style="fill: none; stroke-dasharray: 2.96,1.28; stroke-dashoffset: 0; stroke: #b0b0b0; stroke-opacity: 0.5; stroke-width: 0.8"/>
     </g>
     <g id="line2d_8">
      <g>
       <use xlink:href="#m0dd6a8e997" x="174.455974" y="252.031082" style="stroke: #000000; stroke-width: 0.8"/>
      </g>
     </g>
     <g id="text_4">
      <!-- -6 -->
      <g transform="translate(168.473786 268.149207) scale(0.12 -0.12)">
       <defs>
        <path id="DejaVuSans-36" d="M 2113 2584 
Q 1688 2584 1439 2293 
Q 1191 2003 1191 1497 
Q 1191 994 1439 701 
Q 1688 409 2113 409 
Q 2538 409 2786 701 
Q 3034 994 3034 1497 
Q 3034 2003 2786 2293 
Q 2538 2584 2113 2584 
z
M 3366 4563 
L 3366 3988 
Q 3128 4100 2886 4159 
Q 2644 4219 2406 4219 
Q 1781 4219 1451 3797 
Q 1122 3375 1075 2522 
Q 1259 2794 1537 2939 
Q 1816 3084 2150 3084 
Q 2853 3084 3261 2657 
Q 3669 2231 3669 1497 
Q 3669 778 3244 343 
Q 2819 -91 2113 -91 
Q 1303 -91 875 529 
Q 447 1150 447 2328 
Q 447 3434 972 4092 
Q 1497 4750 2381 4750 
Q 2619 4750 2861 4703 
Q 3103 4656 3366 4563 
z
" transform="scale(0.015625)"/>
       </defs>
       <use xlink:href="#DejaVuSans-2d"/>
       <use xlink:href="#DejaVuSans-36" x="36.083984"/>
      </g>
     </g>
    </g>
    <g id="xtick_5">
     <g id="line2d_9">
      <path d="M 212.756923 252.031082 
L 212.756923 7.2 
" clip-path="url(#pe9a20a50bd)" style="fill: none; stroke-dasharray: 2.96,1.28; stroke-dashoffset: 0; stroke: #b0b0b0; stroke-opacity: 0.5; stroke-width: 0.8"/>
     </g>
     <g id="line2d_10">
      <g>
       <use xlink:href="#m0dd6a8e997" x="212.756923" y="252.031082" style="stroke: #000000; stroke-width: 0.8"/>
      </g>
     </g>
     <g id="text_5">
      <!-- -4 -->
      <g transform="translate(206.774736 268.149207) scale(0.12 -0.12)">
       <defs>
        <path id="DejaVuSans-34" d="M 2419 4116 
L 825 1625 
L 2419 1625 
L 2419 4116 
z
M 2253 4666 
L 3047 4666 
L 3047 1625 
L 3713 1625 
L 3713 1100 
L 3047 1100 
L 3047 0 
L 2419 0 
L 2419 1100 
L 313 1100 
L 313 1709 
L 2253 4666 
z
" transform="scale(0.015625)"/>
       </defs>
       <use xlink:href="#DejaVuSans-2d"/>
       <use xlink:href="#DejaVuSans-34" x="36.083984"/>
      </g>
     </g>
    </g>
    <g id="xtick_6">
     <g id="line2d_11">
      <path d="M 251.057873 252.031082 
L 251.057873 7.2 
" clip-path="url(#pe9a20a50bd)" style="fill: none; stroke-dasharray: 2.96,1.28; stroke-dashoffset: 0; stroke: #b0b0b0; stroke-opacity: 0.5; stroke-width: 0.8"/>
     </g>
     <g id="line2d_12">
      <g>
       <use xlink:href="#m0dd6a8e997" x="251.057873" y="252.031082" style="stroke: #000000; stroke-width: 0.8"/>
      </g>
     </g>
     <g id="text_6">
      <!-- -2 -->
      <g transform="translate(245.075685 268.149207) scale(0.12 -0.12)">
       <use xlink:href="#DejaVuSans-2d"/>
       <use xlink:href="#DejaVuSans-32" x="36.083984"/>
      </g>
     </g>
    </g>
    <g id="xtick_7">
     <g id="line2d_13">
      <path d="M 289.358823 252.031082 
L 289.358823 7.2 
" clip-path="url(#pe9a20a50bd)" style="fill: none; stroke-dasharray: 2.96,1.28; stroke-dashoffset: 0; stroke: #b0b0b0; stroke-opacity: 0.5; stroke-width: 0.8"/>
     </g>
     <g id="line2d_14">
      <g>
       <use xlink:href="#m0dd6a8e997" x="289.358823" y="252.031082" style="stroke: #000000; stroke-width: 0.8"/>
      </g>
     </g>
     <g id="text_7">
      <!-- 0 -->
      <g transform="translate(285.541323 268.149207) scale(0.12 -0.12)">
       <use xlink:href="#DejaVuSans-30"/>
      </g>
     </g>
    </g>
    <g id="xtick_8">
     <g id="line2d_15">
      <path d="M 327.659772 252.031082 
L 327.659772 7.2 
" clip-path="url(#pe9a20a50bd)" style="fill: none; stroke-dasharray: 2.96,1.28; stroke-dashoffset: 0; stroke: #b0b0b0; stroke-opacity: 0.5; stroke-width: 0.8"/>
     </g>
     <g id="line2d_16">
      <g>
       <use xlink:href="#m0dd6a8e997" x="327.659772" y="252.031082" style="stroke: #000000; stroke-width: 0.8"/>
      </g>
     </g>
     <g id="text_8">
      <!-- 2 -->
      <g transform="translate(323.842272 268.149207) scale(0.12 -0.12)">
       <use xlink:href="#DejaVuSans-32"/>
      </g>
     </g>
    </g>
    <g id="xtick_9">
     <g id="line2d_17">
      <path d="M 365.960722 252.031082 
L 365.960722 7.2 
" clip-path="url(#pe9a20a50bd)" style="fill: none; stroke-dasharray: 2.96,1.28; stroke-dashoffset: 0; stroke: #b0b0b0; stroke-opacity: 0.5; stroke-width: 0.8"/>
     </g>
     <g id="line2d_18">
      <g>
       <use xlink:href="#m0dd6a8e997" x="365.960722" y="252.031082" style="stroke: #000000; stroke-width: 0.8"/>
      </g>
     </g>
     <g id="text_9">
      <!-- 4 -->
      <g transform="translate(362.143222 268.149207) scale(0.12 -0.12)">
       <use xlink:href="#DejaVuSans-34"/>
      </g>
     </g>
    </g>
    <g id="xtick_10">
     <g id="line2d_19">
      <path d="M 404.261671 252.031082 
L 404.261671 7.2 
" clip-path="url(#pe9a20a50bd)" style="fill: none; stroke-dasharray: 2.96,1.28; stroke-dashoffset: 0; stroke: #b0b0b0; stroke-opacity: 0.5; stroke-width: 0.8"/>
     </g>
     <g id="line2d_20">
      <g>
       <use xlink:href="#m0dd6a8e997" x="404.261671" y="252.031082" style="stroke: #000000; stroke-width: 0.8"/>
      </g>
     </g>
     <g id="text_10">
      <!-- 6 -->
      <g transform="translate(400.444171 268.149207) scale(0.12 -0.12)">
       <use xlink:href="#DejaVuSans-36"/>
      </g>
     </g>
    </g>
    <g id="xtick_11">
     <g id="line2d_21">
      <path d="M 442.562621 252.031082 
L 442.562621 7.2 
" clip-path="url(#pe9a20a50bd)" style="fill: none; stroke-dasharray: 2.96,1.28; stroke-dashoffset: 0; stroke: #b0b0b0; stroke-opacity: 0.5; stroke-width: 0.8"/>
     </g>
     <g id="line2d_22">
      <g>
       <use xlink:href="#m0dd6a8e997" x="442.562621" y="252.031082" style="stroke: #000000; stroke-width: 0.8"/>
      </g>
     </g>
     <g id="text_11">
      <!-- 8 -->
      <g transform="translate(438.745121 268.149207) scale(0.12 -0.12)">
       <use xlink:href="#DejaVuSans-38"/>
      </g>
     </g>
    </g>
    <g id="xtick_12">
     <g id="line2d_23">
      <path d="M 480.86357 252.031082 
L 480.86357 7.2 
" clip-path="url(#pe9a20a50bd)" style="fill: none; stroke-dasharray: 2.96,1.28; stroke-dashoffset: 0; stroke: #b0b0b0; stroke-opacity: 0.5; stroke-width: 0.8"/>
     </g>
     <g id="line2d_24">
      <g>
       <use xlink:href="#m0dd6a8e997" x="480.86357" y="252.031082" style="stroke: #000000; stroke-width: 0.8"/>
      </g>
     </g>
     <g id="text_12">
      <!-- 10 -->
      <g transform="translate(473.22857 268.149207) scale(0.12 -0.12)">
       <use xlink:href="#DejaVuSans-31"/>
       <use xlink:href="#DejaVuSans-30" x="63.623047"/>
      </g>
     </g>
    </g>
    <g id="xtick_13">
     <g id="line2d_25">
      <path d="M 519.16452 252.031082 
L 519.16452 7.2 
" clip-path="url(#pe9a20a50bd)" style="fill: none; stroke-dasharray: 2.96,1.28; stroke-dashoffset: 0; stroke: #b0b0b0; stroke-opacity: 0.5; stroke-width: 0.8"/>
     </g>
     <g id="line2d_26">
      <g>
       <use xlink:href="#m0dd6a8e997" x="519.16452" y="252.031082" style="stroke: #000000; stroke-width: 0.8"/>
      </g>
     </g>
     <g id="text_13">
      <!-- 12 -->
      <g transform="translate(511.52952 268.149207) scale(0.12 -0.12)">
       <use xlink:href="#DejaVuSans-31"/>
       <use xlink:href="#DejaVuSans-32" x="63.623047"/>
      </g>
     </g>
    </g>
    <g id="text_14">
     <!-- Momentum ($\hbar k_{eff}$) -->
     <g transform="translate(225.458823 285.74952) scale(0.15 -0.15)">
      <defs>
       <path id="SegoeUI-Semibold-4d" d="M 5366 0 
L 4628 0 
L 4628 2900 
Q 4628 3256 4672 3772 
L 4659 3772 
Q 4591 3478 4538 3350 
L 3200 0 
L 2688 0 
L 1347 3325 
Q 1291 3472 1228 3772 
L 1216 3772 
Q 1241 3503 1241 2894 
L 1241 0 
L 553 0 
L 553 4481 
L 1600 4481 
L 2778 1497 
Q 2913 1153 2953 984 
L 2969 984 
Q 3084 1338 3156 1509 
L 4356 4481 
L 5366 4481 
L 5366 0 
z
" transform="scale(0.015625)"/>
       <path id="SegoeUI-Semibold-6f" d="M 1891 -75 
Q 1150 -75 708 373 
Q 266 822 266 1563 
Q 266 2369 727 2822 
Q 1188 3275 1969 3275 
Q 2719 3275 3137 2834 
Q 3556 2394 3556 1613 
Q 3556 847 3104 386 
Q 2653 -75 1891 -75 
z
M 1925 2697 
Q 1500 2697 1253 2400 
Q 1006 2103 1006 1581 
Q 1006 1078 1256 789 
Q 1506 500 1925 500 
Q 2353 500 2583 784 
Q 2813 1069 2813 1594 
Q 2813 2122 2583 2409 
Q 2353 2697 1925 2697 
z
" transform="scale(0.015625)"/>
       <path id="SegoeUI-Semibold-6d" d="M 5256 0 
L 4531 0 
L 4531 1744 
Q 4531 2247 4389 2472 
Q 4247 2697 3909 2697 
Q 3625 2697 3426 2412 
Q 3228 2128 3228 1731 
L 3228 0 
L 2500 0 
L 2500 1803 
Q 2500 2697 1869 2697 
Q 1575 2697 1386 2428 
Q 1197 2159 1197 1731 
L 1197 0 
L 472 0 
L 472 3200 
L 1197 3200 
L 1197 2694 
L 1209 2694 
Q 1556 3275 2219 3275 
Q 2550 3275 2798 3092 
Q 3047 2909 3138 2613 
Q 3494 3275 4200 3275 
Q 5256 3275 5256 1972 
L 5256 0 
z
" transform="scale(0.015625)"/>
       <path id="SegoeUI-Semibold-65" d="M 3181 1403 
L 1000 1403 
Q 1013 959 1273 718 
Q 1534 478 1991 478 
Q 2503 478 2931 784 
L 2931 200 
Q 2494 -75 1775 -75 
Q 1069 -75 667 361 
Q 266 797 266 1588 
Q 266 2334 708 2804 
Q 1150 3275 1806 3275 
Q 2463 3275 2822 2853 
Q 3181 2431 3181 1681 
L 3181 1403 
z
M 2481 1916 
Q 2478 2306 2297 2523 
Q 2116 2741 1797 2741 
Q 1484 2741 1267 2512 
Q 1050 2284 1000 1916 
L 2481 1916 
z
" transform="scale(0.015625)"/>
       <path id="SegoeUI-Semibold-6e" d="M 3322 0 
L 2597 0 
L 2597 1803 
Q 2597 2700 1963 2700 
Q 1631 2700 1415 2451 
Q 1200 2203 1200 1825 
L 1200 0 
L 472 0 
L 472 3200 
L 1200 3200 
L 1200 2669 
L 1213 2669 
Q 1572 3275 2250 3275 
Q 2772 3275 3047 2936 
Q 3322 2597 3322 1956 
L 3322 0 
z
" transform="scale(0.015625)"/>
       <path id="SegoeUI-Semibold-74" d="M 2159 34 
Q 1947 -72 1600 -72 
Q 669 -72 669 822 
L 669 2631 
L 134 2631 
L 134 3200 
L 669 3200 
L 669 3941 
L 1394 4147 
L 1394 3200 
L 2159 3200 
L 2159 2631 
L 1394 2631 
L 1394 1031 
Q 1394 747 1497 625 
Q 1600 503 1841 503 
Q 2025 503 2159 609 
L 2159 34 
z
" transform="scale(0.015625)"/>
       <path id="SegoeUI-Semibold-75" d="M 3263 0 
L 2538 0 
L 2538 506 
L 2525 506 
Q 2209 -75 1544 -75 
Q 409 -75 409 1288 
L 409 3200 
L 1134 3200 
L 1134 1363 
Q 1134 500 1800 500 
Q 2122 500 2330 737 
Q 2538 975 2538 1359 
L 2538 3200 
L 3263 3200 
L 3263 0 
z
" transform="scale(0.015625)"/>
       <path id="SegoeUI-Semibold-20" transform="scale(0.015625)"/>
       <path id="SegoeUI-Semibold-28" d="M 2063 -1019 
L 1450 -1019 
Q 463 88 463 1709 
Q 463 3338 1450 4481 
L 2066 4481 
Q 1097 3294 1097 1716 
Q 1097 150 2063 -1019 
z
" transform="scale(0.015625)"/>
       <path id="DejaVuSans-Oblique-127" d="M 3634 2113 
L 3225 0 
L 2650 0 
L 3056 2094 
Q 3094 2291 3094 2450 
Q 3094 2688 3006 2838 
Q 2863 3084 2475 3084 
Q 2009 3084 1681 2788 
Q 1356 2491 1256 1978 
L 872 0 
L 294 0 
L 1066 3969 
L 675 3969 
L 775 4481 
L 1166 4481 
L 1238 4863 
L 1816 4863 
L 1744 4481 
L 2844 4481 
L 2744 3969 
L 1644 3969 
L 1447 2956 
Q 1713 3272 2025 3428 
Q 2331 3584 2700 3584 
Q 3300 3584 3538 3213 
Q 3688 2975 3688 2606 
Q 3688 2381 3634 2113 
z
" transform="scale(0.015625)"/>
       <path id="DejaVuSans-Oblique-6b" d="M 1172 4863 
L 1747 4863 
L 1197 2028 
L 3169 3500 
L 3916 3500 
L 1716 1825 
L 3322 0 
L 2625 0 
L 1131 1709 
L 800 0 
L 225 0 
L 1172 4863 
z
" transform="scale(0.015625)"/>
       <path id="DejaVuSans-Oblique-65" d="M 3078 2063 
Q 3088 2113 3092 2166 
Q 3097 2219 3097 2272 
Q 3097 2653 2873 2875 
Q 2650 3097 2266 3097 
Q 1838 3097 1509 2826 
Q 1181 2556 1013 2059 
L 3078 2063 
z
M 3578 1613 
L 903 1613 
Q 884 1494 878 1425 
Q 872 1356 872 1306 
Q 872 872 1139 634 
Q 1406 397 1894 397 
Q 2269 397 2603 481 
Q 2938 566 3225 728 
L 3116 159 
Q 2806 34 2476 -28 
Q 2147 -91 1806 -91 
Q 1078 -91 686 257 
Q 294 606 294 1247 
Q 294 1794 489 2264 
Q 684 2734 1063 3103 
Q 1306 3334 1642 3459 
Q 1978 3584 2356 3584 
Q 2950 3584 3301 3228 
Q 3653 2872 3653 2272 
Q 3653 2128 3634 1964 
Q 3616 1800 3578 1613 
z
" transform="scale(0.015625)"/>
       <path id="DejaVuSans-Oblique-66" d="M 3059 4863 
L 2969 4384 
L 2419 4384 
Q 2106 4384 1964 4261 
Q 1822 4138 1753 3809 
L 1691 3500 
L 2638 3500 
L 2553 3053 
L 1606 3053 
L 1013 0 
L 434 0 
L 1031 3053 
L 481 3053 
L 563 3500 
L 1113 3500 
L 1159 3744 
Q 1278 4363 1576 4613 
Q 1875 4863 2516 4863 
L 3059 4863 
z
" transform="scale(0.015625)"/>
       <path id="SegoeUI-Semibold-29" d="M 678 -1019 
L 66 -1019 
Q 1034 150 1034 1716 
Q 1034 3294 63 4481 
L 681 4481 
Q 1672 3338 1672 1709 
Q 1672 88 678 -1019 
z
" transform="scale(0.015625)"/>
      </defs>
      <use xlink:href="#SegoeUI-Semibold-4d" transform="translate(0 0.015625)"/>
      <use xlink:href="#SegoeUI-Semibold-6f" transform="translate(92.431641 0.015625)"/>
      <use xlink:href="#SegoeUI-Semibold-6d" transform="translate(152.148438 0.015625)"/>
      <use xlink:href="#SegoeUI-Semibold-65" transform="translate(240.722656 0.015625)"/>
      <use xlink:href="#SegoeUI-Semibold-6e" transform="translate(293.847656 0.015625)"/>
      <use xlink:href="#SegoeUI-Semibold-74" transform="translate(352.197266 0.015625)"/>
      <use xlink:href="#SegoeUI-Semibold-75" transform="translate(388.330078 0.015625)"/>
      <use xlink:href="#SegoeUI-Semibold-6d" transform="translate(446.679688 0.015625)"/>
      <use xlink:href="#SegoeUI-Semibold-20" transform="translate(535.253906 0.015625)"/>
      <use xlink:href="#SegoeUI-Semibold-28" transform="translate(562.744141 0.015625)"/>
      <use xlink:href="#DejaVuSans-Oblique-127" transform="translate(595.947266 0.015625)"/>
      <use xlink:href="#DejaVuSans-Oblique-6b" transform="translate(665.429688 0.015625)"/>
      <use xlink:href="#DejaVuSans-Oblique-65" transform="translate(723.339844 -16.390625) scale(0.7)"/>
      <use xlink:href="#DejaVuSans-Oblique-66" transform="translate(766.40625 -16.390625) scale(0.7)"/>
      <use xlink:href="#DejaVuSans-Oblique-66" transform="translate(791.049805 -16.390625) scale(0.7)"/>
      <use xlink:href="#SegoeUI-Semibold-29" transform="translate(818.427734 0.015625)"/>
     </g>
    </g>
   </g>
   <g id="matplotlib.axis_2">
    <g id="ytick_1">
     <g id="line2d_27">
      <path d="M 59.553125 252.031082 
L 519.16452 252.031082 
" clip-path="url(#pe9a20a50bd)" style="fill: none; stroke-dasharray: 2.96,1.28; stroke-dashoffset: 0; stroke: #b0b0b0; stroke-opacity: 0.5; stroke-width: 0.8"/>
     </g>
     <g id="line2d_28">
      <defs>
       <path id="md7e1681e79" d="M 0 0 
L -3.5 0 
" style="stroke: #000000; stroke-width: 0.8"/>
      </defs>
      <g>
       <use xlink:href="#md7e1681e79" x="59.553125" y="252.031082" style="stroke: #000000; stroke-width: 0.8"/>
      </g>
     </g>
     <g id="text_15">
      <!-- 0.0 -->
      <g transform="translate(33.469375 256.590145) scale(0.12 -0.12)">
       <defs>
        <path id="DejaVuSans-2e" d="M 684 794 
L 1344 794 
L 1344 0 
L 684 0 
L 684 794 
z
" transform="scale(0.015625)"/>
       </defs>
       <use xlink:href="#DejaVuSans-30"/>
       <use xlink:href="#DejaVuSans-2e" x="63.623047"/>
       <use xlink:href="#DejaVuSans-30" x="95.410156"/>
      </g>
     </g>
    </g>
    <g id="ytick_2">
     <g id="line2d_29">
      <path d="M 59.553125 211.20322 
L 519.16452 211.20322 
" clip-path="url(#pe9a20a50bd)" style="fill: none; stroke-dasharray: 2.96,1.28; stroke-dashoffset: 0; stroke: #b0b0b0; stroke-opacity: 0.5; stroke-width: 0.8"/>
     </g>
     <g id="line2d_30">
      <g>
       <use xlink:href="#md7e1681e79" x="59.553125" y="211.20322" style="stroke: #000000; stroke-width: 0.8"/>
      </g>
     </g>
     <g id="text_16">
      <!-- 0.03 -->
      <g transform="translate(25.834375 215.762282) scale(0.12 -0.12)">
       <defs>
        <path id="DejaVuSans-33" d="M 2597 2516 
Q 3050 2419 3304 2112 
Q 3559 1806 3559 1356 
Q 3559 666 3084 287 
Q 2609 -91 1734 -91 
Q 1441 -91 1130 -33 
Q 819 25 488 141 
L 488 750 
Q 750 597 1062 519 
Q 1375 441 1716 441 
Q 2309 441 2620 675 
Q 2931 909 2931 1356 
Q 2931 1769 2642 2001 
Q 2353 2234 1838 2234 
L 1294 2234 
L 1294 2753 
L 1863 2753 
Q 2328 2753 2575 2939 
Q 2822 3125 2822 3475 
Q 2822 3834 2567 4026 
Q 2313 4219 1838 4219 
Q 1578 4219 1281 4162 
Q 984 4106 628 3988 
L 628 4550 
Q 988 4650 1302 4700 
Q 1616 4750 1894 4750 
Q 2613 4750 3031 4423 
Q 3450 4097 3450 3541 
Q 3450 3153 3228 2886 
Q 3006 2619 2597 2516 
z
" transform="scale(0.015625)"/>
       </defs>
       <use xlink:href="#DejaVuSans-30"/>
       <use xlink:href="#DejaVuSans-2e" x="63.623047"/>
       <use xlink:href="#DejaVuSans-30" x="95.410156"/>
       <use xlink:href="#DejaVuSans-33" x="159.033203"/>
      </g>
     </g>
    </g>
    <g id="ytick_3">
     <g id="line2d_31">
      <path d="M 59.553125 170.375357 
L 519.16452 170.375357 
" clip-path="url(#pe9a20a50bd)" style="fill: none; stroke-dasharray: 2.96,1.28; stroke-dashoffset: 0; stroke: #b0b0b0; stroke-opacity: 0.5; stroke-width: 0.8"/>
     </g>
     <g id="line2d_32">
      <g>
       <use xlink:href="#md7e1681e79" x="59.553125" y="170.375357" style="stroke: #000000; stroke-width: 0.8"/>
      </g>
     </g>
     <g id="text_17">
      <!-- 0.06 -->
      <g transform="translate(25.834375 174.93442) scale(0.12 -0.12)">
       <use xlink:href="#DejaVuSans-30"/>
       <use xlink:href="#DejaVuSans-2e" x="63.623047"/>
       <use xlink:href="#DejaVuSans-30" x="95.410156"/>
       <use xlink:href="#DejaVuSans-36" x="159.033203"/>
      </g>
     </g>
    </g>
    <g id="ytick_4">
     <g id="line2d_33">
      <path d="M 59.553125 129.547495 
L 519.16452 129.547495 
" clip-path="url(#pe9a20a50bd)" style="fill: none; stroke-dasharray: 2.96,1.28; stroke-dashoffset: 0; stroke: #b0b0b0; stroke-opacity: 0.5; stroke-width: 0.8"/>
     </g>
     <g id="line2d_34">
      <g>
       <use xlink:href="#md7e1681e79" x="59.553125" y="129.547495" style="stroke: #000000; stroke-width: 0.8"/>
      </g>
     </g>
     <g id="text_18">
      <!-- 0.09 -->
      <g transform="translate(25.834375 134.106557) scale(0.12 -0.12)">
       <defs>
        <path id="DejaVuSans-39" d="M 703 97 
L 703 672 
Q 941 559 1184 500 
Q 1428 441 1663 441 
Q 2288 441 2617 861 
Q 2947 1281 2994 2138 
Q 2813 1869 2534 1725 
Q 2256 1581 1919 1581 
Q 1219 1581 811 2004 
Q 403 2428 403 3163 
Q 403 3881 828 4315 
Q 1253 4750 1959 4750 
Q 2769 4750 3195 4129 
Q 3622 3509 3622 2328 
Q 3622 1225 3098 567 
Q 2575 -91 1691 -91 
Q 1453 -91 1209 -44 
Q 966 3 703 97 
z
M 1959 2075 
Q 2384 2075 2632 2365 
Q 2881 2656 2881 3163 
Q 2881 3666 2632 3958 
Q 2384 4250 1959 4250 
Q 1534 4250 1286 3958 
Q 1038 3666 1038 3163 
Q 1038 2656 1286 2365 
Q 1534 2075 1959 2075 
z
" transform="scale(0.015625)"/>
       </defs>
       <use xlink:href="#DejaVuSans-30"/>
       <use xlink:href="#DejaVuSans-2e" x="63.623047"/>
       <use xlink:href="#DejaVuSans-30" x="95.410156"/>
       <use xlink:href="#DejaVuSans-39" x="159.033203"/>
      </g>
     </g>
    </g>
    <g id="ytick_5">
     <g id="line2d_35">
      <path d="M 59.553125 88.719632 
L 519.16452 88.719632 
" clip-path="url(#pe9a20a50bd)" style="fill: none; stroke-dasharray: 2.96,1.28; stroke-dashoffset: 0; stroke: #b0b0b0; stroke-opacity: 0.5; stroke-width: 0.8"/>
     </g>
     <g id="line2d_36">
      <g>
       <use xlink:href="#md7e1681e79" x="59.553125" y="88.719632" style="stroke: #000000; stroke-width: 0.8"/>
      </g>
     </g>
     <g id="text_19">
      <!-- 0.12 -->
      <g transform="translate(25.834375 93.278695) scale(0.12 -0.12)">
       <use xlink:href="#DejaVuSans-30"/>
       <use xlink:href="#DejaVuSans-2e" x="63.623047"/>
       <use xlink:href="#DejaVuSans-31" x="95.410156"/>
       <use xlink:href="#DejaVuSans-32" x="159.033203"/>
      </g>
     </g>
    </g>
    <g id="ytick_6">
     <g id="line2d_37">
      <path d="M 59.553125 47.89177 
L 519.16452 47.89177 
" clip-path="url(#pe9a20a50bd)" style="fill: none; stroke-dasharray: 2.96,1.28; stroke-dashoffset: 0; stroke: #b0b0b0; stroke-opacity: 0.5; stroke-width: 0.8"/>
     </g>
     <g id="line2d_38">
      <g>
       <use xlink:href="#md7e1681e79" x="59.553125" y="47.89177" style="stroke: #000000; stroke-width: 0.8"/>
      </g>
     </g>
     <g id="text_20">
      <!-- 0.15 -->
      <g transform="translate(25.834375 52.450832) scale(0.12 -0.12)">
       <defs>
        <path id="DejaVuSans-35" d="M 691 4666 
L 3169 4666 
L 3169 4134 
L 1269 4134 
L 1269 2991 
Q 1406 3038 1543 3061 
Q 1681 3084 1819 3084 
Q 2600 3084 3056 2656 
Q 3513 2228 3513 1497 
Q 3513 744 3044 326 
Q 2575 -91 1722 -91 
Q 1428 -91 1123 -41 
Q 819 9 494 109 
L 494 744 
Q 775 591 1075 516 
Q 1375 441 1709 441 
Q 2250 441 2565 725 
Q 2881 1009 2881 1497 
Q 2881 1984 2565 2268 
Q 2250 2553 1709 2553 
Q 1456 2553 1204 2497 
Q 953 2441 691 2322 
L 691 4666 
z
" transform="scale(0.015625)"/>
       </defs>
       <use xlink:href="#DejaVuSans-30"/>
       <use xlink:href="#DejaVuSans-2e" x="63.623047"/>
       <use xlink:href="#DejaVuSans-31" x="95.410156"/>
       <use xlink:href="#DejaVuSans-35" x="159.033203"/>
      </g>
     </g>
    </g>
    <g id="text_21">
     <!-- Probability Density -->
     <g transform="translate(18.304688 193.974916) rotate(-90) scale(0.15 -0.15)">
      <defs>
       <path id="SegoeUI-Semibold-50" d="M 1294 1625 
L 1294 0 
L 553 0 
L 553 4481 
L 1913 4481 
Q 2684 4481 3109 4122 
Q 3534 3763 3534 3109 
Q 3534 2456 3090 2040 
Q 2647 1625 1891 1625 
L 1294 1625 
z
M 1294 3869 
L 1294 2231 
L 1775 2231 
Q 2253 2231 2503 2453 
Q 2753 2675 2753 3078 
Q 2753 3869 1834 3869 
L 1294 3869 
z
" transform="scale(0.015625)"/>
       <path id="SegoeUI-Semibold-72" d="M 2328 2509 
Q 2197 2613 1950 2613 
Q 1628 2613 1412 2322 
Q 1197 2031 1197 1531 
L 1197 0 
L 472 0 
L 472 3200 
L 1197 3200 
L 1197 2541 
L 1209 2541 
Q 1316 2878 1536 3067 
Q 1756 3256 2028 3256 
Q 2225 3256 2328 3197 
L 2328 2509 
z
" transform="scale(0.015625)"/>
       <path id="SegoeUI-Semibold-62" d="M 1209 463 
L 1197 463 
L 1197 0 
L 472 0 
L 472 4738 
L 1197 4738 
L 1197 2638 
L 1209 2638 
Q 1581 3275 2297 3275 
Q 2903 3275 3245 2845 
Q 3588 2416 3588 1694 
Q 3588 891 3203 408 
Q 2819 -75 2153 -75 
Q 1528 -75 1209 463 
z
M 1191 1734 
L 1191 1338 
Q 1191 988 1414 744 
Q 1638 500 1981 500 
Q 2384 500 2614 814 
Q 2844 1128 2844 1691 
Q 2844 2163 2630 2430 
Q 2416 2697 2050 2697 
Q 1663 2697 1427 2422 
Q 1191 2147 1191 1734 
z
" transform="scale(0.015625)"/>
       <path id="SegoeUI-Semibold-61" d="M 2928 0 
L 2225 0 
L 2225 500 
L 2213 500 
Q 1881 -75 1241 -75 
Q 769 -75 501 181 
Q 234 438 234 859 
Q 234 1766 1278 1916 
L 2228 2050 
Q 2228 2734 1578 2734 
Q 1006 2734 547 2341 
L 547 2975 
Q 1053 3275 1716 3275 
Q 2928 3275 2928 2081 
L 2928 0 
z
M 2228 1572 
L 1556 1478 
Q 1244 1438 1086 1327 
Q 928 1216 928 938 
Q 928 734 1073 604 
Q 1219 475 1463 475 
Q 1794 475 2011 708 
Q 2228 941 2228 1294 
L 2228 1572 
z
" transform="scale(0.015625)"/>
       <path id="SegoeUI-Semibold-69" d="M 838 3872 
Q 659 3872 532 3987 
Q 406 4103 406 4281 
Q 406 4459 532 4578 
Q 659 4697 838 4697 
Q 1022 4697 1150 4578 
Q 1278 4459 1278 4281 
Q 1278 4113 1150 3992 
Q 1022 3872 838 3872 
z
M 1197 0 
L 472 0 
L 472 3200 
L 1197 3200 
L 1197 0 
z
" transform="scale(0.015625)"/>
       <path id="SegoeUI-Semibold-6c" d="M 1200 0 
L 472 0 
L 472 4738 
L 1200 4738 
L 1200 0 
z
" transform="scale(0.015625)"/>
       <path id="SegoeUI-Semibold-79" d="M 3244 3200 
L 1800 -513 
Q 1350 -1506 538 -1506 
Q 309 -1506 156 -1466 
L 156 -863 
Q 328 -919 469 -919 
Q 875 -919 1075 -519 
L 1291 6 
L 19 3200 
L 822 3200 
L 1584 875 
Q 1597 831 1641 644 
L 1656 644 
Q 1672 716 1713 869 
L 2513 3200 
L 3244 3200 
z
" transform="scale(0.015625)"/>
       <path id="SegoeUI-Semibold-44" d="M 553 0 
L 553 4481 
L 1847 4481 
Q 4325 4481 4325 2297 
Q 4325 1259 3637 629 
Q 2950 0 1794 0 
L 553 0 
z
M 1294 3850 
L 1294 628 
L 1888 628 
Q 2672 628 3108 1059 
Q 3544 1491 3544 2278 
Q 3544 3850 1916 3850 
L 1294 3850 
z
" transform="scale(0.015625)"/>
       <path id="SegoeUI-Semibold-73" d="M 272 100 
L 272 772 
Q 678 463 1169 463 
Q 1825 463 1825 850 
Q 1825 959 1769 1036 
Q 1713 1113 1617 1172 
Q 1522 1231 1392 1278 
Q 1263 1325 1103 1384 
Q 906 1463 748 1550 
Q 591 1638 486 1748 
Q 381 1859 328 2000 
Q 275 2141 275 2328 
Q 275 2559 384 2736 
Q 494 2913 678 3033 
Q 863 3153 1097 3214 
Q 1331 3275 1581 3275 
Q 2025 3275 2375 3141 
L 2375 2506 
Q 2038 2738 1600 2738 
Q 1463 2738 1352 2709 
Q 1241 2681 1162 2631 
Q 1084 2581 1040 2511 
Q 997 2441 997 2356 
Q 997 2253 1040 2181 
Q 1084 2109 1170 2054 
Q 1256 2000 1376 1954 
Q 1497 1909 1653 1856 
Q 1859 1772 2023 1684 
Q 2188 1597 2303 1486 
Q 2419 1375 2481 1229 
Q 2544 1084 2544 884 
Q 2544 641 2431 459 
Q 2319 278 2131 159 
Q 1944 41 1698 -17 
Q 1453 -75 1181 -75 
Q 656 -75 272 100 
z
" transform="scale(0.015625)"/>
      </defs>
      <use xlink:href="#SegoeUI-Semibold-50"/>
      <use xlink:href="#SegoeUI-Semibold-72" x="58.447266"/>
      <use xlink:href="#SegoeUI-Semibold-6f" x="94.583984"/>
      <use xlink:href="#SegoeUI-Semibold-62" x="154.300781"/>
      <use xlink:href="#SegoeUI-Semibold-61" x="213.429688"/>
      <use xlink:href="#SegoeUI-Semibold-62" x="265.626953"/>
      <use xlink:href="#SegoeUI-Semibold-69" x="325.880859"/>
      <use xlink:href="#SegoeUI-Semibold-6c" x="352.003906"/>
      <use xlink:href="#SegoeUI-Semibold-69" x="378.126953"/>
      <use xlink:href="#SegoeUI-Semibold-74" x="404.25"/>
      <use xlink:href="#SegoeUI-Semibold-79" x="440.382812"/>
      <use xlink:href="#SegoeUI-Semibold-20" x="491.212891"/>
      <use xlink:href="#SegoeUI-Semibold-44" x="518.703125"/>
      <use xlink:href="#SegoeUI-Semibold-65" x="590.431641"/>
      <use xlink:href="#SegoeUI-Semibold-6e" x="643.556641"/>
      <use xlink:href="#SegoeUI-Semibold-73" x="701.90625"/>
      <use xlink:href="#SegoeUI-Semibold-69" x="745.021484"/>
      <use xlink:href="#SegoeUI-Semibold-74" x="771.144531"/>
      <use xlink:href="#SegoeUI-Semibold-79" x="807.277344"/>
     </g>
    </g>
   </g>
   <g id="line2d_39">
    <path d="M 59.287318 239.007218 
L 59.683541 238.744109 
L 60.079765 240.32276 
L 60.475988 239.467657 
L 60.872212 239.599212 
L 61.268435 240.980531 
L 61.664659 239.072995 
L 62.060883 238.481001 
L 62.457106 238.152116 
L 62.85333 238.481001 
L 63.249553 236.639242 
L 63.645777 238.612555 
L 64.042 237.691676 
L 64.438224 234.20549 
L 64.834447 235.981471 
L 65.230671 233.613496 
L 65.626894 235.257923 
L 66.023118 236.113026 
L 66.419341 232.363731 
L 66.815565 229.995756 
L 67.211788 233.547719 
L 67.608012 228.745991 
L 68.004235 229.732648 
L 68.400459 231.113966 
L 68.796682 229.140654 
L 69.192906 226.180684 
L 69.985353 224.799365 
L 70.381576 223.220715 
L 70.7778 222.102505 
L 71.174023 222.89183 
L 71.570247 221.839396 
L 71.96647 222.168282 
L 72.362694 223.549601 
L 72.758918 221.905173 
L 73.155141 224.47048 
L 73.551365 225.786022 
L 73.947588 221.707842 
L 74.343812 224.93092 
L 74.740035 224.075817 
L 75.136259 225.786022 
L 75.532482 224.996697 
L 75.928706 223.812709 
L 76.324929 226.180684 
L 76.721153 226.378016 
L 77.117376 222.957607 
L 77.5136 222.168282 
L 77.909823 224.733588 
L 78.306047 225.851799 
L 79.098494 222.957607 
L 79.494717 220.523854 
L 79.890941 222.760275 
L 80.287164 221.313179 
L 80.683388 215.985235 
L 81.079611 217.300777 
L 81.475835 215.393241 
L 81.872058 210.459959 
L 82.268282 212.564826 
L 82.664505 206.907996 
L 83.060729 206.513333 
L 83.456953 204.868906 
L 83.853176 199.277853 
L 84.2494 205.526677 
L 84.645623 208.815531 
L 85.041847 208.683977 
L 85.43807 212.893711 
L 85.834294 213.025266 
L 87.419188 223.220715 
L 87.815411 228.08822 
L 88.211635 229.864202 
L 88.607858 230.916635 
L 89.004082 229.66687 
L 89.400305 232.232177 
L 89.796529 233.087279 
L 90.192752 236.507688 
L 90.588976 235.78414 
L 90.985199 238.217893 
L 91.381423 238.217893 
L 91.777646 238.941441 
L 92.17387 236.968128 
L 92.570093 238.809887 
L 92.966317 238.415224 
L 93.36254 240.520091 
L 93.758764 239.138772 
L 94.154988 239.796543 
L 94.551211 240.125428 
L 94.947435 239.664989 
L 95.343658 240.059651 
L 95.739882 238.612555 
L 96.136105 240.32276 
L 96.532329 240.520091 
L 96.928552 240.32276 
L 97.324776 241.243639 
L 97.720999 239.467657 
L 98.117223 239.599212 
L 98.513446 241.046308 
L 98.90967 240.783199 
L 99.305893 239.730766 
L 99.702117 240.454314 
L 100.09834 240.585868 
L 100.494564 239.270326 
L 100.890787 238.546778 
L 101.287011 239.138772 
L 101.683234 240.32276 
L 102.079458 239.533435 
L 102.475681 239.40188 
L 102.871905 239.007218 
L 103.268128 237.494345 
L 103.664352 238.349447 
L 104.060575 237.82323 
L 104.456799 236.573465 
L 104.853023 237.428568 
L 105.249246 235.521032 
L 105.64547 239.336103 
L 106.437917 234.008159 
L 106.83414 234.402821 
L 107.230364 234.008159 
L 107.626587 234.073936 
L 108.022811 235.652586 
L 108.419034 232.1664 
L 108.815258 232.495285 
L 109.211481 234.073936 
L 109.607705 231.179744 
L 110.003928 230.521973 
L 110.400152 232.232177 
L 110.796375 232.758394 
L 111.192599 232.034846 
L 111.985046 233.481942 
L 113.173716 229.009099 
L 113.56994 231.574406 
L 113.966163 231.70596 
L 114.362387 231.113966 
L 114.75861 232.495285 
L 115.154834 229.601093 
L 115.551057 231.574406 
L 115.947281 231.508629 
L 116.343505 233.74505 
L 116.739728 229.535316 
L 117.135952 231.377075 
L 117.532175 228.285551 
L 117.928399 231.377075 
L 118.324622 227.693558 
L 118.720846 231.508629 
L 119.117069 229.206431 
L 119.513293 231.048189 
L 119.909516 226.904232 
L 120.30574 226.50957 
L 120.701963 227.62778 
L 121.098187 223.089161 
L 121.49441 223.352269 
L 121.890634 225.062474 
L 122.286857 220.85274 
L 122.683081 218.81365 
L 123.079304 218.616319 
L 123.475528 213.419928 
L 123.871751 217.300777 
L 125.456645 198.291196 
L 125.852869 195.923221 
L 126.249092 190.397945 
L 126.645316 187.766861 
L 127.04154 182.504694 
L 127.437763 167.704847 
L 127.833987 164.02133 
L 128.626434 150.339695 
L 129.022657 136.592282 
L 129.418881 133.566536 
L 129.815104 121.266219 
L 130.211328 117.714256 
L 130.607551 104.887722 
L 131.003775 101.467313 
L 131.399998 95.87626 
L 131.796222 84.759931 
L 132.192445 85.943919 
L 132.588669 72.591169 
L 132.984892 73.906711 
L 133.381116 60.422407 
L 133.777339 55.949564 
L 134.173563 57.8571 
L 134.569786 55.423347 
L 134.96601 54.23936 
L 135.362233 51.213613 
L 135.758457 57.067775 
L 136.15468 45.030566 
L 136.550904 43.451916 
L 136.947127 38.584411 
L 137.343351 42.596814 
L 137.739575 39.044851 
L 138.135798 43.715025 
L 138.532022 45.62256 
L 138.928245 42.662591 
L 139.324469 49.70074 
L 139.720692 54.173583 
L 140.116916 64.632141 
L 140.513139 67.526333 
L 140.909363 73.24894 
L 141.305586 85.088817 
L 141.70181 91.929635 
L 142.89048 134.026975 
L 143.286704 143.169991 
L 143.682927 149.418815 
L 144.079151 162.179572 
L 144.475374 164.94221 
L 144.871598 176.979418 
L 145.267821 182.899356 
L 145.664045 181.518037 
L 146.060268 191.055716 
L 146.456492 192.239704 
L 146.852715 194.673456 
L 147.248939 200.198732 
L 147.645162 200.659172 
L 148.43761 206.052894 
L 148.833833 207.631544 
L 149.230057 203.882249 
L 150.022504 208.420869 
L 150.418727 202.303599 
L 150.814951 202.303599 
L 151.211174 205.592454 
L 151.607398 201.316943 
L 152.003621 199.080522 
L 152.399845 198.948967 
L 152.796068 196.778323 
L 153.192292 196.449438 
L 153.588515 198.028088 
L 153.984739 195.923221 
L 154.380962 201.448497 
L 154.777186 198.225419 
L 155.173409 203.42181 
L 155.569633 201.38272 
L 155.965856 207.236881 
L 156.36208 210.788844 
L 156.758303 208.881309 
L 157.55075 216.445674 
L 157.946974 216.248343 
L 158.343197 218.945204 
L 158.739421 217.826993 
L 159.135645 221.707842 
L 159.531868 222.89183 
L 159.928092 222.497167 
L 160.324315 224.799365 
L 160.720539 225.391359 
L 161.116762 224.996697 
L 161.512986 227.233118 
L 161.909209 227.956666 
L 162.305433 227.101564 
L 162.701656 225.522913 
L 163.09788 226.50957 
L 163.494103 225.720245 
L 163.890327 226.04913 
L 164.28655 225.588691 
L 165.078997 225.194028 
L 165.475221 224.01004 
L 165.871444 223.615378 
L 166.267668 225.851799 
L 166.663891 225.457136 
L 167.060115 223.878486 
L 167.456338 223.154938 
L 167.852562 219.076758 
L 168.248785 216.77456 
L 168.645009 222.365613 
L 169.041232 221.247402 
L 169.437456 222.760275 
L 169.833679 220.523854 
L 170.229903 222.43139 
L 170.626127 222.036727 
L 171.02235 220.326523 
L 171.418574 223.089161 
L 171.814797 221.839396 
L 172.211021 223.023384 
L 172.607244 221.839396 
L 173.003468 222.036727 
L 173.399691 224.207372 
L 173.795915 223.483824 
L 174.192138 222.43139 
L 174.588362 224.733588 
L 174.984585 223.286492 
L 175.380809 225.128251 
L 175.777032 225.259805 
L 176.173256 224.733588 
L 176.569479 225.522913 
L 176.965703 224.404703 
L 177.361926 221.444734 
L 177.75815 222.826053 
L 178.154373 222.497167 
L 178.94682 225.851799 
L 179.343044 225.588691 
L 179.739267 223.286492 
L 180.135491 225.522913 
L 180.531714 225.457136 
L 181.324162 224.075817 
L 181.720385 224.602034 
L 182.116609 224.536257 
L 182.512832 223.878486 
L 182.909056 225.851799 
L 183.305279 222.036727 
L 183.701503 224.667811 
L 184.097726 223.418046 
L 184.49395 224.273149 
L 184.890173 227.101564 
L 185.286397 224.93092 
L 185.68262 225.786022 
L 186.078844 221.773619 
L 186.475067 222.168282 
L 186.871291 222.89183 
L 187.267514 222.694498 
L 188.456185 226.246461 
L 188.852408 224.536257 
L 189.644855 226.50957 
L 190.041079 226.378016 
L 190.437302 225.325582 
L 190.833526 226.904232 
L 191.229749 225.457136 
L 191.625973 226.180684 
L 192.022197 227.759335 
L 192.41842 227.298895 
L 192.814644 226.312239 
L 193.210867 228.54866 
L 194.003314 225.457136 
L 194.399538 226.50957 
L 194.795761 226.97001 
L 195.191985 224.996697 
L 195.588208 226.575347 
L 195.984432 224.01004 
L 196.380655 228.54866 
L 196.776879 225.786022 
L 197.173102 225.194028 
L 197.965549 222.89183 
L 198.757996 224.01004 
L 199.15422 223.418046 
L 199.550443 223.746932 
L 199.946667 225.259805 
L 200.34289 222.826053 
L 200.739114 225.062474 
L 201.135337 225.588691 
L 201.531561 227.825112 
L 201.927784 225.654468 
L 202.324008 226.97001 
L 202.720232 225.720245 
L 203.116455 229.074877 
L 203.512679 228.285551 
L 203.908902 228.54866 
L 204.305126 229.798425 
L 204.701349 232.429508 
L 205.097573 231.377075 
L 205.493796 232.1664 
L 205.89002 233.218834 
L 206.286243 232.495285 
L 206.682467 233.350388 
L 207.07869 236.24458 
L 207.474914 234.20549 
L 208.267361 235.192146 
L 208.663584 236.902351 
L 209.059808 238.086338 
L 209.456031 236.836574 
L 209.852255 237.889007 
L 210.248478 238.612555 
L 210.644702 237.494345 
L 211.040925 238.612555 
L 211.437149 239.072995 
L 211.833372 238.546778 
L 212.229596 238.481001 
L 212.625819 239.796543 
L 213.022043 239.730766 
L 213.418267 239.86232 
L 213.81449 239.138772 
L 214.210714 239.730766 
L 214.606937 240.651645 
L 215.003161 240.454314 
L 215.399384 239.664989 
L 215.795608 238.152116 
L 216.191831 238.678332 
L 216.588055 238.678332 
L 216.984278 236.178803 
L 217.380502 237.231236 
L 217.776725 235.915694 
L 218.569172 234.468598 
L 218.965396 234.929038 
L 219.757843 234.008159 
L 220.55029 229.798425 
L 220.946513 229.929979 
L 221.342737 230.982412 
L 222.135184 226.641124 
L 222.531407 228.285551 
L 222.927631 226.443793 
L 223.323854 223.746932 
L 223.720078 224.536257 
L 224.116301 224.338926 
L 224.512525 222.957607 
L 224.908749 224.075817 
L 225.304972 221.378957 
L 225.701196 220.85274 
L 226.097419 223.286492 
L 226.493643 222.826053 
L 226.889866 223.154938 
L 227.28609 224.865143 
L 227.682313 224.865143 
L 228.078537 226.180684 
L 228.47476 225.720245 
L 228.870984 226.04913 
L 229.267207 224.93092 
L 229.663431 224.799365 
L 230.059654 226.641124 
L 230.455878 226.838455 
L 230.852101 224.01004 
L 231.248325 224.075817 
L 231.644548 223.746932 
L 232.040772 222.562944 
L 232.436995 219.274089 
L 232.833219 220.129192 
L 233.625666 218.616319 
L 234.021889 217.103445 
L 234.418113 211.775501 
L 234.814336 213.15682 
L 235.21056 211.380838 
L 235.606784 208.6182 
L 236.003007 208.552423 
L 236.399231 203.750695 
L 236.795454 206.776442 
L 237.587901 205.4609 
L 237.984125 204.276912 
L 238.380348 209.07864 
L 238.776572 209.210194 
L 239.172795 215.459018 
L 239.569019 215.919458 
L 239.965242 224.01004 
L 240.361466 223.286492 
L 240.757689 224.207372 
L 241.153913 225.457136 
L 241.550136 231.048189 
L 241.94636 229.601093 
L 242.342583 230.653527 
L 242.738807 233.416165 
L 243.13503 234.20549 
L 243.531254 234.20549 
L 243.927477 235.323701 
L 244.323701 235.915694 
L 244.719924 238.809887 
L 245.116148 238.152116 
L 245.512371 237.757453 
L 245.908595 240.454314 
L 246.304819 238.744109 
L 246.701042 239.336103 
L 247.097266 237.757453 
L 247.493489 238.546778 
L 247.889713 238.152116 
L 248.285936 239.796543 
L 248.68216 240.585868 
L 249.078383 239.796543 
L 249.474607 242.36185 
L 249.87083 238.941441 
L 250.267054 238.875664 
L 250.663277 240.125428 
L 251.059501 240.32276 
L 251.851948 239.336103 
L 252.248171 240.783199 
L 252.644395 240.388537 
L 253.040618 240.520091 
L 253.436842 240.388537 
L 253.833065 241.375193 
L 254.229289 238.941441 
L 254.625512 240.454314 
L 255.814183 237.099682 
L 256.210406 238.086338 
L 256.60663 237.82323 
L 257.002854 237.889007 
L 257.399077 238.546778 
L 258.983971 235.718363 
L 259.380195 234.008159 
L 259.776418 233.153056 
L 260.172642 235.652586 
L 260.568865 233.481942 
L 260.965089 234.66593 
L 261.361312 234.20549 
L 261.757536 234.139713 
L 262.153759 231.70596 
L 262.549983 230.850858 
L 262.946206 232.561063 
L 263.34243 232.62684 
L 263.738653 233.021502 
L 264.134877 231.508629 
L 264.5311 231.70596 
L 264.927324 230.12731 
L 265.323547 231.377075 
L 265.719771 230.982412 
L 266.115994 232.363731 
L 266.512218 233.087279 
L 266.908441 232.100623 
L 267.304665 228.482883 
L 267.700889 232.495285 
L 268.097112 231.311298 
L 268.493336 231.245521 
L 268.889559 230.653527 
L 269.285783 231.442852 
L 269.682006 228.351329 
L 270.07823 229.66687 
L 270.474453 232.034846 
L 270.870677 230.719304 
L 271.2669 227.890889 
L 272.059347 231.113966 
L 272.455571 230.061533 
L 273.644241 225.457136 
L 274.040465 225.457136 
L 274.436688 222.036727 
L 274.832912 226.114907 
L 275.229135 225.522913 
L 276.021582 217.037668 
L 276.417806 216.906114 
L 276.814029 218.221656 
L 277.210253 211.907055 
L 277.606476 209.867965 
L 278.0027 205.855562 
L 278.398923 203.750695 
L 278.795147 197.238763 
L 279.191371 194.936565 
L 279.983818 184.412229 
L 280.380041 176.058538 
L 280.776265 171.191033 
L 281.172488 161.456024 
L 281.568712 159.022271 
L 281.964935 146.5904 
L 283.549829 116.464491 
L 283.946053 100.941097 
L 284.342276 100.480657 
L 284.7385 87.522569 
L 285.134723 81.536854 
L 285.530947 81.471077 
L 285.92717 70.025862 
L 286.323394 70.354748 
L 286.719617 64.500586 
L 287.115841 61.869503 
L 287.512064 58.31754 
L 287.908288 56.410004 
L 288.304511 55.883787 
L 288.700735 46.609217 
L 289.096958 44.372796 
L 289.493182 48.450975 
L 289.889406 40.294616 
L 290.285629 39.110628 
L 290.681853 38.38708 
L 291.078076 37.203092 
L 291.4743 43.254585 
L 291.870523 36.611098 
L 292.66297 53.976251 
L 293.059194 58.514871 
L 293.455417 60.290852 
L 293.851641 72.064952 
L 294.247864 78.247999 
L 295.436535 110.873438 
L 295.832758 127.778151 
L 296.625205 140.210022 
L 297.021429 154.812537 
L 297.417652 159.94315 
L 298.210099 177.637189 
L 298.606323 181.715369 
L 299.002546 190.924162 
L 299.39877 192.437035 
L 299.794993 195.72589 
L 300.191217 197.830757 
L 300.587441 201.38272 
L 300.983664 201.514274 
L 301.776111 204.474243 
L 302.172335 204.868906 
L 302.568558 203.092924 
L 302.964782 206.250225 
L 303.361005 205.00046 
L 303.757229 206.57911 
L 304.153452 204.54002 
L 304.549676 203.750695 
L 304.945899 202.698262 
L 305.342123 199.80407 
L 305.738346 200.264509 
L 306.13457 200.001401 
L 306.530793 199.540961 
L 306.927017 197.633425 
L 307.32324 200.593395 
L 307.719464 196.580992 
L 308.115687 198.159642 
L 308.511911 201.645828 
L 309.700581 207.302658 
L 310.096805 212.499049 
L 310.493028 214.209253 
L 310.889252 216.445674 
L 311.285476 220.063415 
L 311.681699 220.655408 
L 312.077923 222.102505 
L 312.474146 222.234059 
L 312.87037 223.418046 
L 313.662817 227.035787 
L 314.05904 226.97001 
L 314.455264 224.996697 
L 314.851487 227.496226 
L 315.643934 226.114907 
L 316.040158 224.865143 
L 316.436381 226.180684 
L 316.832605 226.904232 
L 317.228828 229.140654 
L 317.625052 227.890889 
L 318.021275 223.023384 
L 318.417499 224.996697 
L 318.813722 221.97095 
L 319.209946 226.04913 
L 319.606169 222.102505 
L 320.002393 222.760275 
L 320.398616 222.43139 
L 320.79484 219.93186 
L 321.191063 220.85274 
L 321.587287 219.537198 
L 321.983511 220.918517 
L 322.379734 220.918517 
L 322.775958 220.194969 
L 323.172181 221.707842 
L 323.568405 220.3923 
L 323.964628 219.997638 
L 324.360852 223.615378 
L 324.757075 222.168282 
L 325.153299 222.102505 
L 325.549522 222.694498 
L 325.945746 222.826053 
L 326.341969 224.47048 
L 326.738193 222.694498 
L 327.134416 221.97095 
L 327.53064 223.418046 
L 327.926863 224.01004 
L 328.323087 224.273149 
L 328.71931 224.338926 
L 329.115534 225.917576 
L 329.511757 225.588691 
L 329.907981 226.443793 
L 330.304204 226.50957 
L 330.700428 227.167341 
L 331.096651 226.246461 
L 331.492875 224.273149 
L 331.889098 224.93092 
L 332.285322 224.93092 
L 332.681545 224.799365 
L 333.077769 224.799365 
L 333.473993 222.694498 
L 333.870216 224.404703 
L 334.26644 224.141594 
L 334.662663 226.97001 
L 335.058887 226.04913 
L 335.45511 224.141594 
L 335.851334 223.615378 
L 336.247557 224.93092 
L 336.643781 223.549601 
L 337.040004 224.075817 
L 337.436228 226.312239 
L 337.832451 224.273149 
L 338.228675 223.483824 
L 338.624898 225.654468 
L 339.021122 223.944263 
L 339.417345 223.418046 
L 339.813569 227.167341 
L 340.209792 223.286492 
L 340.606016 225.391359 
L 341.002239 223.944263 
L 341.398463 224.667811 
L 341.794686 226.904232 
L 342.19091 227.62778 
L 342.587133 225.062474 
L 342.983357 227.035787 
L 343.37958 226.904232 
L 343.775804 228.022443 
L 344.172028 224.799365 
L 344.568251 230.12731 
L 344.964475 228.417106 
L 345.360698 227.62778 
L 345.756922 224.93092 
L 346.153145 226.04913 
L 346.549369 225.457136 
L 346.945592 226.641124 
L 347.341816 226.772678 
L 347.738039 225.325582 
L 348.134263 225.851799 
L 348.530486 224.47048 
L 348.92671 225.654468 
L 349.322933 227.562003 
L 349.719157 224.799365 
L 350.11538 226.97001 
L 350.511604 225.062474 
L 350.907827 228.614437 
L 351.304051 224.338926 
L 351.700274 222.826053 
L 352.096498 223.615378 
L 352.492721 223.286492 
L 352.888945 226.50957 
L 353.285168 222.957607 
L 353.681392 223.944263 
L 354.077615 227.496226 
L 354.473839 226.180684 
L 354.870063 228.745991 
L 355.266286 227.233118 
L 355.66251 227.101564 
L 356.058733 228.153997 
L 356.454957 228.811768 
L 356.85118 230.521973 
L 357.247404 232.955725 
L 357.643627 229.798425 
L 358.039851 232.955725 
L 358.436074 230.456196 
L 358.832298 231.969069 
L 359.228521 233.021502 
L 359.624745 231.508629 
L 360.020968 232.692617 
L 360.813415 236.507688 
L 361.209639 235.323701 
L 361.605862 237.625899 
L 362.002086 237.36279 
L 362.398309 239.533435 
L 362.794533 236.24458 
L 363.190756 237.428568 
L 363.58698 237.099682 
L 364.379427 240.520091 
L 364.77565 240.059651 
L 365.171874 239.336103 
L 365.568098 239.336103 
L 365.964321 240.125428 
L 366.360545 239.533435 
L 366.756768 238.086338 
L 367.152992 240.783199 
L 367.945439 239.599212 
L 368.341662 239.796543 
L 369.134109 238.941441 
L 369.530333 235.915694 
L 369.926556 236.376134 
L 370.32278 238.415224 
L 370.719003 237.82323 
L 371.115227 234.139713 
L 371.51145 235.981471 
L 371.907674 233.74505 
L 372.303897 234.402821 
L 372.700121 234.008159 
L 373.096344 235.389478 
L 373.492568 232.297954 
L 373.888791 233.087279 
L 374.285015 231.442852 
L 374.681238 232.297954 
L 375.077462 227.298895 
L 375.473685 227.496226 
L 375.869909 223.878486 
L 376.266133 227.101564 
L 376.662356 224.536257 
L 377.454803 225.457136 
L 377.851027 222.43139 
L 378.24725 222.102505 
L 378.643474 225.325582 
L 379.039697 221.642065 
L 379.435921 223.812709 
L 379.832144 223.352269 
L 380.228368 224.273149 
L 380.624591 225.983353 
L 381.020815 224.075817 
L 381.417038 224.338926 
L 381.813262 226.114907 
L 382.209485 226.246461 
L 382.605709 226.04913 
L 383.001932 224.338926 
L 383.398156 223.549601 
L 383.794379 223.746932 
L 384.190603 224.404703 
L 384.586826 221.773619 
L 384.98305 222.562944 
L 385.379273 222.826053 
L 385.775497 224.075817 
L 386.17172 220.063415 
L 386.567944 218.35321 
L 387.360391 212.69638 
L 387.756615 213.551482 
L 388.152838 209.867965 
L 388.549062 212.038609 
L 388.945285 206.184448 
L 389.341509 206.710664 
L 390.133956 205.987116 
L 390.530179 206.907996 
L 390.926403 208.355092 
L 391.322626 207.697321 
L 391.71885 211.380838 
L 392.115073 214.011922 
L 392.511297 215.064355 
L 392.90752 217.103445 
L 393.303744 220.326523 
L 393.699967 221.115848 
L 394.096191 223.812709 
L 394.888638 231.70596 
L 395.284861 231.311298 
L 395.681085 232.363731 
L 396.077308 235.257923 
L 396.473532 233.74505 
L 396.869755 237.033905 
L 397.265979 236.573465 
L 397.662202 237.165459 
L 398.058426 239.270326 
L 398.850873 238.481001 
L 399.247097 240.256983 
L 400.039544 239.467657 
L 400.435767 239.40188 
L 401.228214 241.177862 
L 401.624438 237.82323 
L 402.020661 239.993874 
L 402.416885 238.809887 
L 402.813108 241.967187 
L 403.209332 242.230295 
L 403.605555 238.875664 
L 404.001779 240.848976 
L 404.398002 240.125428 
L 404.794226 240.32276 
L 405.190449 238.612555 
L 405.586673 239.138772 
L 406.37912 241.375193 
L 406.775343 239.993874 
L 407.171567 239.664989 
L 407.56779 237.889007 
L 407.964014 240.717422 
L 408.360237 239.467657 
L 408.756461 240.125428 
L 409.152685 237.231236 
L 409.548908 239.40188 
L 410.341355 238.612555 
L 410.737579 239.072995 
L 411.133802 238.546778 
L 411.530026 236.047249 
L 411.926249 236.507688 
L 412.322473 236.178803 
L 412.718696 234.600152 
L 413.11492 234.863261 
L 413.511143 234.863261 
L 413.907367 235.126369 
L 414.30359 235.126369 
L 414.699814 234.600152 
L 415.096037 233.876604 
L 415.492261 234.797484 
L 415.888484 231.70596 
L 416.284708 231.508629 
L 416.680931 235.521032 
L 417.077155 231.245521 
L 417.473378 233.547719 
L 417.869602 233.021502 
L 418.265825 233.284611 
L 418.662049 233.087279 
L 419.058272 234.534375 
L 419.454496 231.508629 
L 419.85072 232.363731 
L 420.246943 232.692617 
L 420.643167 230.982412 
L 421.03939 231.969069 
L 421.435614 234.731707 
L 421.831837 232.297954 
L 422.228061 232.100623 
L 422.624284 231.70596 
L 423.020508 231.048189 
L 423.416731 231.179744 
L 424.209178 231.771737 
L 424.605402 230.390418 
L 425.001625 227.956666 
L 425.397849 230.258864 
L 425.794072 231.311298 
L 426.190296 229.535316 
L 426.586519 228.285551 
L 427.378966 228.54866 
L 427.77519 226.04913 
L 428.171413 225.259805 
L 428.567637 221.642065 
L 428.96386 221.576288 
L 429.360084 219.142535 
L 429.756307 219.997638 
L 430.152531 218.024325 
L 430.548755 213.419928 
L 431.341202 207.302658 
L 431.737425 205.592454 
L 432.529872 197.30454 
L 432.926096 188.950849 
L 433.322319 186.385542 
L 433.718543 175.071882 
L 434.114766 174.414111 
L 434.51099 163.560891 
L 434.907213 156.983181 
L 437.680778 96.599808 
L 438.473225 91.469195 
L 439.265672 78.116445 
L 439.661895 74.169819 
L 440.058119 72.393838 
L 440.850566 62.724605 
L 441.246789 61.211732 
L 441.643013 59.172642 
L 442.039237 52.529155 
L 442.43546 50.950505 
L 442.831684 50.226957 
L 443.227907 47.793204 
L 443.624131 40.755055 
L 444.020354 45.030566 
L 444.416578 51.213613 
L 444.812801 44.438573 
L 445.209025 50.029626 
L 446.001472 65.881905 
L 446.397695 60.093521 
L 446.793919 73.906711 
L 447.190142 78.379553 
L 447.586366 92.521629 
L 447.982589 98.83623 
L 448.378813 116.332937 
L 451.152377 181.320706 
L 451.548601 185.596217 
L 451.944824 192.042372 
L 452.341048 194.936565 
L 453.133495 204.54002 
L 453.925942 207.49999 
L 454.322166 209.341748 
L 454.718389 210.328405 
L 455.114613 208.355092 
L 455.510836 209.933742 
L 455.90706 212.564826 
L 456.303283 211.841278 
L 456.699507 210.262628 
L 457.09573 210.065296 
L 457.491954 207.631544 
L 457.888177 206.052894 
L 458.284401 207.828875 
L 458.680624 206.513333 
L 459.076848 207.763098 
L 459.473071 201.580051 
L 459.869295 203.42181 
L 460.265518 202.829816 
L 460.661742 204.342689 
L 461.057965 206.907996 
L 461.454189 205.329345 
L 461.850412 206.184448 
L 462.246636 207.960429 
L 462.642859 214.077699 
L 463.435307 220.326523 
L 463.83153 221.378957 
L 464.623977 226.312239 
L 465.020201 226.575347 
L 465.416424 228.943322 
L 465.812648 227.759335 
L 466.208871 231.179744 
L 466.605095 230.12731 
L 467.001318 230.324641 
L 467.397542 231.969069 
L 467.793765 232.1664 
L 468.189989 232.692617 
L 468.586212 230.785081 
L 468.982436 231.640183 
L 469.378659 230.58775 
L 469.774883 230.850858 
L 470.171106 233.021502 
L 470.56733 230.850858 
L 470.963553 231.311298 
L 471.359777 230.850858 
L 471.756 228.943322 
L 472.152224 231.442852 
L 472.548447 228.614437 
L 472.944671 230.916635 
L 473.340894 230.193087 
L 473.737118 232.1664 
L 474.133342 228.54866 
L 474.529565 232.297954 
L 474.925789 229.66687 
L 475.322012 228.417106 
L 475.718236 229.798425 
L 476.114459 230.58775 
L 476.510683 227.233118 
L 476.906906 229.798425 
L 477.30313 229.403762 
L 477.699353 230.719304 
L 478.095577 231.574406 
L 478.4918 233.021502 
L 478.888024 231.771737 
L 479.680471 232.100623 
L 480.076694 231.574406 
L 480.472918 231.70596 
L 480.869141 231.640183 
L 481.661588 229.929979 
L 482.057812 232.692617 
L 482.454035 232.692617 
L 482.850259 232.889948 
L 483.246482 232.889948 
L 483.642706 231.640183 
L 484.038929 232.363731 
L 484.435153 233.547719 
L 485.2276 232.232177 
L 485.623824 233.876604 
L 486.020047 232.955725 
L 486.416271 232.889948 
L 486.812494 232.495285 
L 487.208718 231.442852 
L 487.604941 233.481942 
L 488.001165 233.218834 
L 488.397388 229.535316 
L 488.793612 235.192146 
L 489.189835 232.232177 
L 489.982282 230.258864 
L 490.378506 231.508629 
L 490.774729 232.034846 
L 491.567176 230.719304 
L 491.9634 232.824171 
L 492.359623 231.969069 
L 492.755847 232.561063 
L 493.15207 231.70596 
L 493.944517 232.232177 
L 494.340741 233.416165 
L 494.736964 233.284611 
L 495.133188 233.876604 
L 495.529412 234.008159 
L 495.925635 233.481942 
L 496.321859 234.402821 
L 496.718082 233.74505 
L 497.114306 234.929038 
L 497.510529 234.271267 
L 497.906753 234.008159 
L 498.302976 234.994815 
L 498.6992 233.679273 
L 499.095423 235.455255 
L 499.491647 233.284611 
L 499.88787 233.481942 
L 500.284094 234.66593 
L 500.680317 233.547719 
L 501.076541 234.600152 
L 501.472764 231.903292 
L 501.868988 232.429508 
L 502.265211 234.600152 
L 503.057658 233.942382 
L 503.453882 232.889948 
L 503.850105 233.153056 
L 504.246329 232.561063 
L 504.642552 235.126369 
L 505.038776 231.245521 
L 505.434999 230.850858 
L 505.831223 231.442852 
L 506.227446 232.955725 
L 506.62367 233.942382 
L 507.019894 234.073936 
L 507.416117 234.994815 
L 507.812341 235.257923 
L 508.208564 234.600152 
L 508.604788 235.652586 
L 509.001011 235.126369 
L 509.397235 237.560122 
L 509.793458 235.981471 
L 510.189682 237.231236 
L 510.585905 238.086338 
L 510.982129 238.349447 
L 511.378352 237.560122 
L 511.774576 239.664989 
L 512.170799 240.32276 
L 512.567023 239.40188 
L 512.963246 239.40188 
L 513.35947 240.783199 
L 513.755693 240.520091 
L 514.151917 241.44097 
L 514.54814 241.375193 
L 514.944364 242.624958 
L 515.340587 241.638302 
L 515.736811 242.624958 
L 516.133034 242.559181 
L 516.529258 243.677392 
L 516.925481 243.216952 
L 517.321705 243.743169 
L 517.717929 243.414283 
L 518.114152 244.598271 
L 519.302823 243.545837 
L 519.302823 243.545837 
" clip-path="url(#pe9a20a50bd)" style="fill: none; stroke: #663399; stroke-width: 1.5; stroke-linecap: square"/>
   </g>
   <g id="patch_3">
    <path d="M 59.553125 252.031082 
L 59.553125 7.2 
" style="fill: none; stroke: #000000; stroke-width: 0.8; stroke-linejoin: miter; stroke-linecap: square"/>
   </g>
   <g id="patch_4">
    <path d="M 519.16452 252.031082 
L 519.16452 7.2 
" style="fill: none; stroke: #000000; stroke-width: 0.8; stroke-linejoin: miter; stroke-linecap: square"/>
   </g>
   <g id="patch_5">
    <path d="M 59.553125 252.031082 
L 519.16452 252.031082 
" style="fill: none; stroke: #000000; stroke-width: 0.8; stroke-linejoin: miter; stroke-linecap: square"/>
   </g>
   <g id="patch_6">
    <path d="M 59.553125 7.2 
L 519.16452 7.2 
" style="fill: none; stroke: #000000; stroke-width: 0.8; stroke-linejoin: miter; stroke-linecap: square"/>
   </g>
   <g id="text_22">
    <!-- 8 Cycles -->
    <g transform="translate(457.883001 26.11691) scale(0.15 -0.15)">
     <defs>
      <path id="SegoeUI-Semibold-38" d="M 284 1250 
Q 284 1444 332 1625 
Q 381 1806 478 1959 
Q 575 2113 722 2234 
Q 869 2356 1066 2431 
Q 775 2594 603 2848 
Q 431 3103 431 3413 
Q 431 3659 532 3868 
Q 634 4078 814 4231 
Q 994 4384 1237 4470 
Q 1481 4556 1769 4556 
Q 2059 4556 2304 4468 
Q 2550 4381 2729 4228 
Q 2909 4075 3009 3865 
Q 3109 3656 3109 3413 
Q 3109 3103 2937 2848 
Q 2766 2594 2481 2431 
Q 2675 2356 2823 2236 
Q 2972 2116 3072 1962 
Q 3172 1809 3222 1628 
Q 3272 1447 3272 1250 
Q 3272 956 3162 712 
Q 3053 469 2856 295 
Q 2659 122 2384 25 
Q 2109 -72 1778 -72 
Q 1450 -72 1176 25 
Q 903 122 704 295 
Q 506 469 395 712 
Q 284 956 284 1250 
z
M 991 1313 
Q 991 1122 1047 969 
Q 1103 816 1206 709 
Q 1309 603 1454 547 
Q 1600 491 1778 491 
Q 1950 491 2094 548 
Q 2238 606 2342 714 
Q 2447 822 2506 973 
Q 2566 1125 2566 1313 
Q 2566 1484 2509 1636 
Q 2453 1788 2350 1900 
Q 2247 2013 2101 2078 
Q 1956 2144 1778 2144 
Q 1609 2144 1464 2083 
Q 1319 2022 1214 1911 
Q 1109 1800 1050 1647 
Q 991 1494 991 1313 
z
M 1144 3338 
Q 1144 3197 1194 3076 
Q 1244 2956 1328 2867 
Q 1413 2778 1527 2728 
Q 1641 2678 1772 2678 
Q 1903 2678 2017 2729 
Q 2131 2781 2217 2870 
Q 2303 2959 2353 3079 
Q 2403 3200 2403 3338 
Q 2403 3478 2354 3600 
Q 2306 3722 2222 3809 
Q 2138 3897 2022 3947 
Q 1906 3997 1772 3997 
Q 1631 3997 1515 3945 
Q 1400 3894 1317 3803 
Q 1234 3713 1189 3592 
Q 1144 3472 1144 3338 
z
" transform="scale(0.015625)"/>
      <path id="SegoeUI-Semibold-43" d="M 3678 188 
Q 3172 -75 2419 -75 
Q 1444 -75 856 540 
Q 269 1156 269 2156 
Q 269 3231 930 3893 
Q 1591 4556 2600 4556 
Q 3250 4556 3678 4372 
L 3678 3634 
Q 3225 3903 2678 3903 
Q 1950 3903 1498 3437 
Q 1047 2972 1047 2194 
Q 1047 1453 1469 1014 
Q 1891 575 2578 575 
Q 3213 575 3678 875 
L 3678 188 
z
" transform="scale(0.015625)"/>
      <path id="SegoeUI-Semibold-63" d="M 2763 147 
Q 2378 -75 1853 -75 
Q 1141 -75 703 370 
Q 266 816 266 1525 
Q 266 2316 736 2795 
Q 1206 3275 1994 3275 
Q 2431 3275 2766 3122 
L 2766 2447 
Q 2431 2697 2053 2697 
Q 1594 2697 1300 2386 
Q 1006 2075 1006 1572 
Q 1006 1075 1282 787 
Q 1559 500 2025 500 
Q 2416 500 2763 778 
L 2763 147 
z
" transform="scale(0.015625)"/>
     </defs>
     <use xlink:href="#SegoeUI-Semibold-38"/>
     <use xlink:href="#SegoeUI-Semibold-20" x="55.517578"/>
     <use xlink:href="#SegoeUI-Semibold-43" x="83.007812"/>
     <use xlink:href="#SegoeUI-Semibold-79" x="145.117188"/>
     <use xlink:href="#SegoeUI-Semibold-63" x="195.197266"/>
     <use xlink:href="#SegoeUI-Semibold-6c" x="242.21875"/>
     <use xlink:href="#SegoeUI-Semibold-65" x="268.341797"/>
     <use xlink:href="#SegoeUI-Semibold-73" x="321.466797"/>
    </g>
   </g>
  </g>
 </g>
 <defs>
  <clipPath id="pe9a20a50bd">
   <rect x="59.553125" y="7.2" width="459.611395" height="244.831083"/>
  </clipPath>
 </defs>
</svg>
